<?xml version="1.0" encoding="UTF-8" standalone="no"?>
<!-- Created with Inkscape (http://www.inkscape.org/) -->

<svg
   width="58.816647mm"
   height="18.358728mm"
   viewBox="0 0 58.816647 18.358728"
   version="1.1"
   id="svg1"
   xml:space="preserve"
   xmlns:inkscape="http://www.inkscape.org/namespaces/inkscape"
   xmlns:sodipodi="http://sodipodi.sourceforge.net/DTD/sodipodi-0.dtd"
   xmlns:xlink="http://www.w3.org/1999/xlink"
   xmlns="http://www.w3.org/2000/svg"
   xmlns:svg="http://www.w3.org/2000/svg"><sodipodi:namedview
     id="namedview1"
     pagecolor="#505050"
     bordercolor="#eeeeee"
     borderopacity="1"
     inkscape:showpageshadow="0"
     inkscape:pageopacity="0"
     inkscape:pagecheckerboard="0"
     inkscape:deskcolor="#505050"
     inkscape:document-units="mm"><inkscape:page
       x="0"
       y="0"
       width="58.816647"
       height="18.358728"
       id="page2"
       margin="0"
       bleed="0" /></sodipodi:namedview><defs
     id="defs1"><linearGradient
       id="linearGradient47"
       inkscape:collect="always"><stop
         style="stop-color:#5fc3e4;stop-opacity:1;"
         offset="0.08580858"
         id="stop47" /><stop
         style="stop-color:#e55d87;stop-opacity:1;"
         offset="1"
         id="stop48" /></linearGradient><linearGradient
       id="linearGradient1"
       inkscape:collect="always"><stop
         style="stop-color:#000000;stop-opacity:1;"
         offset="0"
         id="stop1" /><stop
         style="stop-color:#000000;stop-opacity:0;"
         offset="1"
         id="stop2" /></linearGradient><linearGradient
       inkscape:collect="always"
       xlink:href="#linearGradient1"
       id="linearGradient2"
       x1="122.63041"
       y1="39.374306"
       x2="339.66153"
       y2="39.374306"
       gradientUnits="userSpaceOnUse" /><linearGradient
       inkscape:collect="always"
       xlink:href="#linearGradient47"
       id="linearGradient48"
       x1="-0.00029224402"
       y1="34.693802"
       x2="222.29884"
       y2="34.693802"
       gradientUnits="userSpaceOnUse" /><linearGradient
       inkscape:collect="always"
       xlink:href="#linearGradient47"
       id="linearGradient3"
       gradientUnits="userSpaceOnUse"
       x1="-0.00029224402"
       y1="34.693802"
       x2="222.29884"
       y2="34.693802" /><linearGradient
       inkscape:collect="always"
       xlink:href="#linearGradient47"
       id="linearGradient4"
       gradientUnits="userSpaceOnUse"
       x1="-0.00029224402"
       y1="34.693802"
       x2="222.29884"
       y2="34.693802" /><linearGradient
       inkscape:collect="always"
       xlink:href="#linearGradient47"
       id="linearGradient5"
       gradientUnits="userSpaceOnUse"
       x1="-0.00029224402"
       y1="34.693802"
       x2="222.29884"
       y2="34.693802" /><linearGradient
       inkscape:collect="always"
       xlink:href="#linearGradient47"
       id="linearGradient6"
       gradientUnits="userSpaceOnUse"
       x1="-0.00029224402"
       y1="34.693802"
       x2="222.29884"
       y2="34.693802" /><linearGradient
       inkscape:collect="always"
       xlink:href="#linearGradient47"
       id="linearGradient7"
       gradientUnits="userSpaceOnUse"
       x1="-0.00029224402"
       y1="34.693802"
       x2="222.29884"
       y2="34.693802" /><linearGradient
       inkscape:collect="always"
       xlink:href="#linearGradient47"
       id="linearGradient8"
       gradientUnits="userSpaceOnUse"
       x1="-0.00029224402"
       y1="34.693802"
       x2="222.29884"
       y2="34.693802" /><linearGradient
       inkscape:collect="always"
       xlink:href="#linearGradient47"
       id="linearGradient9"
       gradientUnits="userSpaceOnUse"
       x1="-0.00029224402"
       y1="34.693802"
       x2="222.29884"
       y2="34.693802" /></defs><g
     inkscape:label="Layer 1"
     inkscape:groupmode="layer"
     id="layer1"
     transform="translate(-67.968907,-139.51647)"><g
       style="overflow:visible;fill:url(#linearGradient48);fill-opacity:1"
       id="g1"
       transform="matrix(0.26458333,0,0,0.26458333,67.968984,139.51643)"><path
         fill="#8c8c8c"
         d="m 117.227,24.633 -6.705,2.325 -1.541,6.244 h -4.273 v 4.105 h 3.374 c 0,0 -3.598,12.875 -2.924,16.812 0.675,4.273 4.836,5.172 7.31,5.06 2.474,-0.112 3.149,-1.911 3.036,-2.586 -0.113,-0.675 -3.487,0.644 -3.824,-2.393 -0.225,-1.799 2.812,-16.893 2.812,-16.893 h 5.285 v -4.105 h -4.161 z"
         id="path6"
         style="fill:url(#linearGradient3);fill-opacity:1" /><path
         fill="#8c8c8c"
         d="m 98.272,40.792 2.332,-3.939 c 0,0 -1.9,-4.045 -7.511,-4.045 -5.611,0 -8.848,4.046 -8.848,8.848 0,4.802 10.682,8.417 8.093,13.164 -4.316,4.424 -8.872,-2.792 -8.782,-3.266 -0.326,0.47 -2.56,3.549 -2.452,3.549 0.54,1.079 2.5,4.5 8.752,4.572 5.179,0.06 8.309,-3.776 8.417,-8.523 0.108,-6.366 -9.172,-9.604 -9.28,-12.517 -0.108,-2.913 6.151,-6.26 9.279,2.157 z"
         id="path8"
         style="fill:url(#linearGradient4);fill-opacity:1" /><path
         d="m 86.042,31.416 c -1,-0.938 -1.75,0.313 -4,1.25 -2.25,0.937 -3,0.813 -5.25,0.5 -3.688,-0.813 -10.17,-0.57 -11.875,0.25 -11.386,4.572 -5.281,13.031 -3.422,14.719 -0.016,0 -2.773,1.453 -3.176,3.735 -0.518,2.933 0.831,4.52 0.873,4.561 -3.72,0.193 -6.112,3.934 -5.536,6.997 0.62,3.299 4.553,5.931 10.184,5.953 11.904,0.259 12.521,-7.353 12.521,-7.353 1.629,-9.258 -6.222,-9.685 -11.817,-9.25 -2.025,-1.809 -0.445,-3.496 -0.531,-3.496 18.904,0.446 14.145,-12.162 14.145,-12.162 3.192,-0.777 9.446,-4.204 7.884,-5.704 z m -25.32,26.523 c 7.405,1.336 10.385,-0.362 10.892,3.413 0.219,3.684 -2.908,4.737 -6.545,4.963 -3.637,0.226 -6.287,-1.612 -6.433,-3.975 -0.145,-2.363 1.919,-2.119 2.086,-4.401 z M 72.161,41.835 c -0.684,3.028 -2.782,5.136 -4.687,4.706 -1.905,-0.431 -2.894,-3.234 -2.211,-6.263 0.684,-3.029 2.782,-5.137 4.687,-4.707 1.905,0.431 2.895,3.235 2.211,6.264 z"
         id="path9"
         style="fill:url(#linearGradient5);fill-opacity:1" /><path
         fill="#ff3131"
         d="m 47.141,5.199 c -5.409,0 -13.323,-4.407 -21.036,-4.407 -7.713,0 -12.32,4.407 -13.122,5.008 -0.801,0.601 -1.303,2.904 1.102,2.203 2.405,-0.701 4.407,-0.701 8.214,-0.701 3.807,0 12.922,5.209 22.138,5.209 9.216,0 16.928,-7.111 18.631,-9.616 1.703,-2.505 0.1,-3.306 -1.202,-2.704 -1.303,0.601 -9.716,5.008 -14.725,5.008 z"
         id="path10"
         style="fill:url(#linearGradient6);fill-opacity:1" /><path
         fill="#319831"
         d="m 70.639,18.921 c -5.683,0 -13.997,-4.406 -22.1,-4.406 -8.103,0 -12.944,4.406 -13.786,5.008 -0.842,0.602 -1.369,2.904 1.157,2.203 2.526,-0.701 4.63,-0.701 8.629,-0.701 3.999,0 13.576,5.209 23.257,5.209 9.681,0 17.785,-7.111 19.574,-9.615 1.789,-2.505 0.105,-3.307 -1.263,-2.705 -1.368,0.602 -10.206,5.007 -15.468,5.007 z"
         id="path11"
         style="fill:url(#linearGradient7);fill-opacity:1" /><path
         fill="#3232cc"
         d="m 37.936,34.063 c -5.893,0 -14.515,-4.761 -22.918,-4.761 -8.403,0 -13.424,4.761 -14.297,5.41 -0.873,0.649 -1.419,3.137 1.2,2.379 2.62,-0.757 4.802,-0.757 8.949,-0.757 4.147,0 14.079,5.626 24.12,5.626 10.04,0 18.443,-7.681 20.299,-10.386 1.856,-2.705 0.109,-3.57 -1.31,-2.921 -1.419,0.649 -10.586,5.41 -16.043,5.41 z"
         id="path12"
         style="fill:url(#linearGradient8);fill-opacity:1" /><text
         xml:space="preserve"
         style="font-size:57.3333px;line-height:0;font-family:Arial;-inkscape-font-specification:Arial;letter-spacing:0px;word-spacing:0px;writing-mode:lr-tb;direction:ltr;fill:url(#linearGradient9);fill-opacity:1;stroke:none;stroke-width:1.00157;stroke-dasharray:none;stroke-opacity:1"
         x="120.62182"
         y="59.892075"
         id="text1"><tspan
           sodipodi:role="line"
           id="tspan1"
           x="120.62182"
           y="59.892075"
           style="font-style:normal;font-variant:normal;font-weight:normal;font-stretch:normal;font-size:57.3333px;font-family:serif;-inkscape-font-specification:serif;fill:url(#linearGradient9);fill-opacity:1;stroke:none;stroke-width:1.00157;stroke-dasharray:none;stroke-opacity:1">Vlm</tspan></text></g></g></svg>
